<svg id="Верхнее" xmlns="http://www.w3.org/2000/svg" viewBox="0 0 1374.21 1819.63"><defs><style>.cls-1,.cls-2,.cls-3{fill:none;stroke:#000;stroke-width:60px;}.cls-1,.cls-2{stroke-miterlimit:10;}.cls-2,.cls-3{stroke-linecap:round;}.cls-3{stroke-linejoin:round;}</style></defs><path class="cls-1" d="M679.46,293" transform="translate(-306.99 -41.92)"/><path class="cls-1" d="M679.46,293V161.19a89.53,89.53,0,0,1,89.27-89.27h793.21a89.53,89.53,0,0,1,89.27,89.27V1742.27c0,49.1-40.17,89.28-89.27,89.28H768.73c-49.1,0-89.27-40.18-89.27-89.28V1097.06" transform="translate(-306.99 -41.92)"/><circle class="cls-1" cx="858.34" cy="240.46" r="71.04"/><circle class="cls-1" cx="858.34" cy="1557.9" r="71.04"/><path class="cls-1" d="M923.54,481.43h-581a5.51,5.51,0,0,1-5.51-5.5V298.52A5.51,5.51,0,0,1,342.5,293h581a5.51,5.51,0,0,1,5.51,5.51V475.93A5.51,5.51,0,0,1,923.54,481.43Z" transform="translate(-306.99 -41.92)"/><line class="cls-2" x1="1116.66" y1="422.04" x2="1116.66" y2="1318.95"/><line class="cls-2" x1="31.48" y1="437.76" x2="372.47" y2="763.18"/><line class="cls-2" x1="620.47" y1="252.78" x2="1116.66" y2="659.09"/><line class="cls-2" x1="620.16" y1="438.15" x2="969.31" y2="763.18"/><line class="cls-2" x1="1116.66" y1="1175.35" x2="582.73" y2="1175.35"/><path class="cls-3" d="M679.46,805.1H1276.3c-72.49,19.81-121.52,87.83-117.38,161.82,4,71.71,57,132.54,128.4,146.64" transform="translate(-306.99 -41.92)"/><path class="cls-3" d="M714,805.1c-72.49,19.81-121.52,87.83-117.38,161.82,4,71.71,57,132.54,128.4,146.64" transform="translate(-306.99 -41.92)"/><path class="cls-2" d="M679.46,1113.56" transform="translate(-306.99 -41.92)"/><line class="cls-2" x1="1116.66" y1="1071.65" x2="418.06" y2="1071.65"/><line class="cls-2" x1="582.73" y1="1175.36" x2="582.73" y2="1071.65"/></svg>