<svg id="Layer_1" data-name="Layer 1" xmlns="http://www.w3.org/2000/svg" viewBox="0 0 122.58 122.58"><defs><style>.cls-1,.cls-2{fill:#231e1b;}.cls-1{fill-rule:evenodd;}</style></defs><path class="cls-1" d="M61.29,3.15A60.39,60.39,0,0,0,42.2,120.84c3,.56,4.13-1.31,4.13-2.91,0-1.44-.06-6.19-.09-11.24-16.8,3.65-20.34-7.13-20.34-7.13-2.75-7-6.71-8.83-6.71-8.83-5.48-3.75.42-3.67.42-3.67,6.06.42,9.25,6.22,9.25,6.22,5.39,9.23,14.13,6.56,17.58,5,.54-3.9,2.1-6.57,3.83-8.07C36.86,88.7,22.76,83.52,22.76,60.38A23.39,23.39,0,0,1,29,44.17c-.63-1.52-2.69-7.66.58-16,0,0,5.08-1.62,16.61,6.19a57.36,57.36,0,0,1,30.25,0C87.94,26.57,93,28.19,93,28.19c3.28,8.32,1.22,14.46.59,16a23.35,23.35,0,0,1,6.22,16.21c0,23.2-14.13,28.3-27.58,29.8,2.17,1.87,4.1,5.55,4.1,11.18,0,8.08-.07,14.58-.07,16.57,0,1.61,1.08,3.49,4.14,2.9A60.39,60.39,0,0,0,61.29,3.15Z"/><path class="cls-2" d="M23.77,89.85c-.13.3-.6.39-1,.19s-.68-.61-.54-.91.6-.4,1-.19.69.61.53.91ZM23,89.3"/><path class="cls-2" d="M26.22,92.58c-.29.27-.85.14-1.23-.28a.92.92,0,0,1-.18-1.25c.3-.27.84-.15,1.24.27s.47,1,.17,1.26ZM25.64,92"/><path class="cls-2" d="M28.6,96.06c-.37.26-1,0-1.35-.52s-.37-1.18,0-1.44,1,0,1.35.5.37,1.19,0,1.46Zm0,0"/><path class="cls-2" d="M31.86,99.42c-.33.36-1,.26-1.55-.23A1.17,1.17,0,0,1,30,97.64c.33-.36,1-.26,1.56.23s.69,1.19.33,1.55Zm0,0"/><path class="cls-2" d="M36.36,101.37c-.14.47-.82.69-1.51.49s-1.13-.77-1-1.24.83-.7,1.52-.49,1.12.76,1,1.24Zm0,0"/><path class="cls-2" d="M41.31,101.73c0,.5-.57.91-1.29.92s-1.3-.39-1.31-.88.57-.91,1.29-.92,1.31.39,1.31.88Zm0,0"/><path class="cls-2" d="M45.9,101c.09.48-.41,1-1.12,1.12s-1.35-.18-1.44-.66.42-1,1.12-1.12,1.35.16,1.44.66Zm0,0"/></svg>