<?xml version="1.0" encoding="utf-8"?>
<!-- Generator: Adobe Illustrator 25.2.1, SVG Export Plug-In . SVG Version: 6.00 Build 0)  -->
<svg version="1.1" xmlns="http://www.w3.org/2000/svg" xmlns:xlink="http://www.w3.org/1999/xlink" x="0px" y="0px"
	 viewBox="0 0 512 512" style="enable-background:new 0 0 512 512;" xml:space="preserve">
<style type="text/css">
	.st0{display:none;}
	.st1{display:inline;opacity:0.49;fill:#FECB00;}
	.st2{display:inline;opacity:0.49;fill:#FE3333;}
	.st3{display:inline;opacity:0.51;}
	.st4{opacity:0.51;fill:#FFFFFF;}
	.st5{display:inline;}
	.st6{fill:none;stroke:#FFFFFF;stroke-miterlimit:10;}
	.st7{fill:none;stroke:#000000;stroke-miterlimit:10;}
</style>
<g id="Слой_2" class="st0">
	<path class="st1" d="M335,156.9c12.9,8,24,18.1,33.6,29.9c16.5,20.3,27,43.3,30.6,69.2c5.9,42.6-4.8,80.8-32.6,113.7
		c-19.4,23-43.8,38.6-73.1,45.7c-47.9,11.5-91.2,1.6-128.9-30.2c-24.9-21-40.7-47.9-46.8-79.9c-8.6-45.3,1.9-86.1,31.8-121.4
		c21-24.9,47.9-40.5,79.8-46.9c32.5-6.5,63.7-2.3,93.4,12.8c0.3,0.2,0.6,0.3,0.9,0.4c1.3,1.1,0.8,2.6,0.8,4c0,25.2,0,50.5,0,75.7
		c0,2.9,0,5.8,0.6,8.7c0.1,0.6,0.2,1.2,0.2,1.7c-0.1,0.6,0,1.3-0.8,1.4c-0.6,0.1-0.8-0.5-1-0.9c-0.9-1.8-1.6-3.7-2.6-5.4
		c-6.5-11.4-15.9-19.8-27.4-25.5c-29.1-14.4-57.2-12.1-83.1,7.6c-17,12.9-26.4,30.7-28.4,52c-2.3,24.2,5.3,45.1,22.5,62.2
		c12.7,12.6,28.4,19.9,46.3,21.4c21.6,1.7,40.9-4.4,57.3-18.7c15.9-13.8,23.7-31.5,25.6-52.2c0.4-4.8,0.4-9.5,0.4-14.2
		c0-35.6,0-71.1,0-106.7C334.3,159.7,333.8,158.1,335,156.9z"/>
	<path class="st2" d="M335,156.9c0,1.1-0.1,2.2-0.1,3.2c0,39.1,0.1,78.1-0.1,117.2c-0.1,17.7-5.5,34-16.7,47.9
		c-12.1,15-27.9,24.4-46.9,27.6c-27.1,4.5-50.4-3.4-69.4-23.1c-12-12.4-18.8-27.5-20.3-44.8c-2.3-24.9,5.6-46.1,23.4-63.4
		c12-11.7,26.6-18.6,43.4-20.6c24.6-2.8,45.8,4.5,63.7,21.5c5.1,4.9,9.2,10.5,11.8,17.1c0.3,0.7,0.6,1.3,0.7,1.9
		c-1.1-29.7-0.3-59.4-0.6-89.1c0-0.7-0.1-1.3-0.1-2c0-7.7,0-15.3,0-23c0-22.7,0-45.3,0.1-68c0-0.6,0.1-1.2,0.1-2
		c4.5,1.7,8.8,3.4,13.1,5.1c27.8,10.8,55.6,21.6,83.4,32.4c1.9,0.7,2.4,1.7,2.4,3.6c-0.1,22,0,44,0,66c0,2.8,0,2.8-2.6,1.8
		c-27.6-10.7-55.1-21.4-82.7-32.2c-2.7-1-2.7-1-2.7,1.9C334.9,142.9,335,149.9,335,156.9z"/>
	
		<image style="overflow:visible;opacity:0.49;" width="1024" height="1024" xlink:href="C:\Users\demes\Desktop\c7d27627ce35527d6b56b.png"  transform="matrix(0.5 0 0 0.5 11.4846 -19.1489)">
	</image>
</g>
<g id="Layer_1" class="st0">
	<g class="st3">
		<circle cx="256" cy="256" r="251.4"/>
	</g>
	<path id="path40" class="st4" d="M313.5,105.4h-45.6c-44.9,0-82.9,34.1-82.9,100.4c0,39.8,18.4,69.1,51.2,83.5l-61.3,110.9
		c-2,3.6,0,6.4,3.2,6.4h28.4c2.4,0,4-0.8,4.8-2.8L267,295h20v108.9c0,1.2,1.2,2.8,2.8,2.8h24.8c2.4,0,3.2-1.2,3.2-3.2v-294
		C317.9,106.6,316.3,105.4,313.5,105.4z M287,269.3h-16.8c-26.4,0-52.1-19.3-52.1-67.5c0-50.2,24-70.7,48.4-70.7H287L287,269.3
		L287,269.3z"/>
</g>
<g id="Слой_6">
	<g>
		<path d="M256,4.6C117.2,4.6,4.6,117.2,4.6,256S117.2,507.4,256,507.4S507.4,394.8,507.4,256S394.8,4.6,256,4.6z M421.3,164.3
			c0,2.8,0,2.8-2.6,1.8c-27.6-10.7-55.1-21.4-82.7-32.2c-2.7-1-2.7-1-2.7,1.9c0,7,0.1,14,0.1,21c12.9,8,24,18.1,33.6,29.9
			c16.5,20.2,27,43.3,30.6,69.2c5.9,42.6-4.9,80.8-32.6,113.8c-19.4,23-43.8,38.6-73.1,45.7c-47.9,11.5-91.2,1.7-128.9-30.2
			c-24.9-21-40.7-47.9-46.8-79.9c-8.7-45.3,1.9-86.1,31.8-121.4c21-24.9,47.9-40.5,79.8-46.9c32.5-6.5,63.7-2.3,93.4,12.8
			c0.3,0.2,0.6,0.3,0.9,0.4h0c0-7.7,0-15.3,0-23c0-22.7,0-45.3,0.1-68c0-0.6,0-1.1,0.1-2c4.5,1.7,8.8,3.4,13.1,5.1
			C363.4,73.2,391.2,84,419,94.7c1.9,0.8,2.4,1.7,2.4,3.6C421.3,120.3,421.3,142.3,421.3,164.3z"/>
		<path d="M332.8,161.1c0,35.6,0,71.1,0,106.7c0,4.7,0,9.5-0.4,14.2c-1.8,20.7-9.7,38.4-25.6,52.2c-16.5,14.3-35.8,20.4-57.3,18.7
			c-17.9-1.4-33.6-8.7-46.3-21.3c-17.2-17.1-24.8-37.9-22.5-62.2c2.1-21.3,11.4-39.1,28.4-52c25.9-19.7,54-22,83.1-7.6
			c11.5,5.7,21,14.1,27.4,25.5c1,1.8,1.6,3.6,2.5,5.4c0.2,0.4,0.5,1,1,1c0.8-0.1,0.7-0.8,0.8-1.4c0.1-0.6-0.1-1.2-0.2-1.7
			c-0.6-2.9-0.7-5.8-0.7-8.7c0-25.2,0-50.5,0-75.7c0-1.2,0.4-2.5-0.5-3.6l10.7,6.4C332.3,158.2,332.8,159.7,332.8,161.1z"/>
		<path d="M333.4,160.1c0,39.1,0.2,78.1-0.1,117.2c-0.1,17.7-5.5,34-16.7,47.9c-12.1,15-27.9,24.4-46.9,27.6
			c-27.1,4.5-50.4-3.3-69.4-23.1c-12-12.4-18.8-27.5-20.3-44.8c-2.3-24.9,5.6-46.1,23.4-63.5c12-11.7,26.6-18.6,43.4-20.6
			c24.6-2.8,45.8,4.5,63.7,21.5c5.1,4.9,9.2,10.5,11.8,17.2c0.3,0.7,0.6,1.3,0.7,1.9c-1-29.7-0.3-59.4-0.6-89.1
			c0-0.6-0.1-1.3-0.1-1.9c0,0,0,0,0-0.1h0c0.1,0.1,0.2,0.2,0.3,0.4c0.8,1.1,0.5,2.4,0.5,3.6c0,25.2,0,50.5,0,75.7
			c0,2.9,0,5.8,0.7,8.7c0.1,0.6,0.2,1.1,0.2,1.7c-0.1,0.5,0,1.3-0.8,1.4c-0.6,0.1-0.8-0.5-1-1c-0.9-1.8-1.6-3.7-2.5-5.4
			c-6.5-11.4-15.9-19.8-27.4-25.5c-29.1-14.4-57.2-12.1-83.1,7.6c-17,12.9-26.4,30.7-28.4,52c-2.3,24.2,5.3,45.1,22.5,62.2
			c12.7,12.6,28.4,19.9,46.3,21.3c21.6,1.7,40.9-4.4,57.3-18.7c15.9-13.8,23.7-31.5,25.6-52.2c0.4-4.8,0.4-9.5,0.4-14.2
			c0-35.6,0-71.2,0-106.7c0-1.4-0.4-2.9,0.6-4.2h0c0,0,0-0.1,0.1-0.1C333.5,157.9,333.4,159,333.4,160.1z"/>
		<polygon points="333.5,156.9 333.5,157 333.4,157 333.4,157 322.7,150.6 322.3,150.4 322.3,150.3 322.3,150.2 322.3,150.2 
			322.3,150.2 322.3,150.2 		"/>
	</g>
</g>
<g id="Слой_2__x28_копия_x29_" class="st0">
	<g class="st5">
		<path d="M256,4.6C117.2,4.6,4.6,117.2,4.6,256S117.2,507.4,256,507.4S507.4,394.8,507.4,256S394.8,4.6,256,4.6z M422.9,164.3
			c0,2.8,0,2.8-2.6,1.8c-27.6-10.7-55.1-21.4-82.7-32.2c-2.7-1-2.7-1-2.7,1.9c0,7,0.1,14,0.1,21c12.9,8,24,18.1,33.6,29.9
			c16.5,20.2,27,43.3,30.6,69.2c5.9,42.6-4.8,80.8-32.6,113.8c-19.4,23-43.8,38.6-73.1,45.7c-47.8,11.5-91.2,1.7-128.9-30.2
			c-24.9-21-40.7-47.9-46.8-79.9c-8.6-45.3,1.9-86.1,31.8-121.4c21-24.9,47.9-40.5,79.8-46.9c32.5-6.5,63.7-2.3,93.4,12.8
			c0.3,0.2,0.6,0.3,0.9,0.4c0-7.7,0-15.3,0-23c0-22.7,0-45.3,0.1-68c0-0.6,0-1.1,0.1-2c4.4,1.7,8.8,3.4,13.1,5.1
			c27.8,10.8,55.6,21.7,83.4,32.4c1.9,0.8,2.4,1.7,2.4,3.6C422.9,120.3,422.9,142.3,422.9,164.3z"/>
		<path d="M334.3,161.1c0,35.6,0,71.1,0,106.7c0,4.7,0,9.5-0.4,14.2c-1.8,20.7-9.7,38.4-25.6,52.2c-16.5,14.3-35.8,20.4-57.3,18.7
			c-17.9-1.4-33.6-8.7-46.3-21.3c-17.2-17.1-24.8-37.9-22.5-62.2c2.1-21.3,11.5-39.1,28.4-52c25.9-19.7,54-22,83.1-7.6
			c11.5,5.7,21,14.1,27.4,25.5c1,1.8,1.6,3.6,2.6,5.4c0.2,0.4,0.5,1,1,1c0.7-0.1,0.7-0.8,0.8-1.4c0.1-0.6,0-1.2-0.2-1.7
			c-0.6-2.9-0.7-5.8-0.6-8.7c0-25.2,0-50.5,0-75.7c0-0.9,0.2-1.9,0-2.8c-0.1-0.3-0.2-0.6-0.4-0.9l10.7,6.4
			C333.9,158.2,334.3,159.7,334.3,161.1z"/>
		<path d="M335,157c0,1-0.1,2.1-0.1,3.1c0,39.1,0.2,78.1-0.1,117.2c-0.1,17.7-5.5,34-16.7,47.9c-12.1,15-27.9,24.4-46.9,27.6
			c-27.1,4.5-50.4-3.3-69.4-23.1c-11.9-12.4-18.8-27.5-20.3-44.8c-2.3-24.9,5.6-46.1,23.4-63.5c12-11.7,26.6-18.6,43.4-20.6
			c24.6-2.8,45.8,4.5,63.7,21.5c5.1,4.9,9.2,10.5,11.8,17.2c0.3,0.7,0.6,1.3,0.7,1.9c-1.1-29.7-0.3-59.4-0.6-89.1
			c0-0.6-0.1-1.2-0.1-1.8c0-0.1,0-0.1,0-0.2c0.1,0.1,0.3,0.2,0.4,0.4c0.2,0.3,0.3,0.5,0.4,0.9c0.2,0.9,0,1.9,0,2.8
			c0,25.2,0,50.5,0,75.7c0,2.9,0,5.8,0.6,8.7c0.1,0.6,0.2,1.1,0.2,1.7c-0.1,0.5,0,1.3-0.8,1.4c-0.6,0.1-0.8-0.5-1-1
			c-0.9-1.8-1.6-3.7-2.6-5.4c-6.5-11.4-15.9-19.8-27.4-25.5c-29.1-14.4-57.2-12.1-83.1,7.6c-17,12.9-26.4,30.7-28.4,52
			c-2.3,24.2,5.3,45.1,22.5,62.2c12.7,12.6,28.4,19.9,46.3,21.3c21.6,1.7,40.9-4.4,57.3-18.7c15.9-13.8,23.7-31.5,25.6-52.2
			c0.4-4.8,0.4-9.5,0.4-14.2c0-35.6,0-71.2,0-106.7C334.3,159.7,333.9,158.2,335,157c-0.1-0.1,0-0.1,0-0.2V157z"/>
	</g>
	<polygon class="st5" points="335,156.9 335,157 334.9,157 324.2,150.6 323.8,150.4 323.8,150.4 323.8,150.2 	"/>
</g>
<g id="Слой_2__x28_копия2_x29_" class="st0">
	<g class="st5">
		<g id="XMLID_1_">
			<g>
				<path d="M420.5,94.7c1.9,0.8,2.4,1.7,2.4,3.6c-0.1,22,0,44,0,66c0,2.8,0,2.8-2.6,1.8c-27.6-10.7-55.1-21.4-82.7-32.2
					c-2.7-1.1-2.7-1-2.7,1.9c0,7,0.1,14,0.1,21c-1.2,1.3-0.7,2.8-0.7,4.3c0,35.6,0,71.1,0,106.7c0,4.7,0,9.5-0.4,14.2
					c-1.8,20.7-9.7,38.4-25.6,52.2c-16.5,14.3-35.8,20.4-57.3,18.7c-17.9-1.4-33.6-8.7-46.3-21.4c-17.2-17.1-24.8-37.9-22.5-62.2
					c2.1-21.3,11.5-39.1,28.4-52c25.9-19.7,54-22,83.1-7.6c11.5,5.7,21,14.1,27.4,25.5c1,1.8,1.6,3.6,2.6,5.4c0.2,0.4,0.4,1,1,0.9
					c0.7-0.1,0.7-0.8,0.8-1.4c0.1-0.6,0-1.2-0.2-1.7c-0.6-2.9-0.6-5.8-0.6-8.7c0-25.2,0-50.5,0-75.7c0-1.4,0.5-2.9-0.8-4
					c0-7.7,0-15.3,0-23c0-22.7,0-45.3,0.1-68c0-0.6,0.1-1.2,0.1-2c4.5,1.7,8.8,3.4,13.1,5.1C364.9,73.2,392.7,84,420.5,94.7z"/>
				<path d="M256,4.6c138.9,0,251.4,112.6,251.4,251.4S394.9,507.4,256,507.4S4.6,394.9,4.6,256S117.2,4.6,256,4.6z M422.9,98.3
					c0-1.9-0.5-2.9-2.4-3.6c-27.8-10.7-55.6-21.6-83.4-32.4c-4.3-1.7-8.6-3.3-13.1-5.1c0,0.9-0.1,1.4-0.1,2c0,22.7,0,45.3-0.1,68
					c0,7.7,0,15.3,0,23c-0.3-0.1-0.6-0.3-0.9-0.4c-29.7-15-60.9-19.3-93.4-12.8c-31.9,6.4-58.8,22-79.8,46.9
					c-29.9,35.3-40.4,76-31.8,121.4c6.1,32,21.9,58.9,46.8,79.9c37.7,31.8,81,41.7,128.9,30.2c29.3-7.1,53.7-22.7,73.1-45.7
					c27.7-33,38.5-71.1,32.6-113.8c-3.6-25.9-14.1-48.9-30.6-69.2c-9.6-11.8-20.7-21.9-33.6-29.9c0-7-0.1-14-0.1-21
					c0-2.9,0-2.9,2.7-1.9c27.6,10.7,55.1,21.4,82.7,32.2c2.6,1,2.6,1,2.6-1.8C422.9,142.3,422.9,120.3,422.9,98.3z"/>
				<path d="M324.7,241.8c-0.6,0.1-0.8-0.5-1-0.9c-0.9-1.8-1.6-3.7-2.6-5.4c-6.5-11.4-15.9-19.8-27.4-25.5
					c-29.1-14.4-57.2-12.1-83.1,7.6c-17,12.9-26.4,30.7-28.4,52c-2.3,24.2,5.3,45.1,22.5,62.2c12.7,12.6,28.4,19.9,46.3,21.4
					c21.6,1.7,40.9-4.4,57.3-18.7c15.9-13.8,23.7-31.5,25.6-52.2c0.4-4.8,0.4-9.5,0.4-14.2c0-35.6,0-71.1,0-106.7
					c0-1.4-0.5-3,0.7-4.3c0,1.1-0.1,2.2-0.1,3.2c0,39.1,0.1,78.1-0.1,117.2c-0.1,17.7-5.5,34-16.7,47.9
					c-12.1,15-27.9,24.4-46.9,27.6c-27.1,4.5-50.4-3.3-69.4-23.1c-11.9-12.4-18.8-27.5-20.3-44.8c-2.3-24.9,5.6-46.1,23.4-63.4
					c12.1-11.7,26.6-18.6,43.4-20.6c24.6-2.8,45.8,4.5,63.7,21.5c5.1,4.9,9.2,10.5,11.8,17.1c0.3,0.7,0.6,1.3,0.7,1.9
					c-1.1-29.7-0.3-59.4-0.6-89.1c0-0.7-0.1-1.3-0.1-2c1.3,1.1,0.8,2.6,0.8,4c0,25.2,0,50.5,0,75.7c0,2.9,0,5.8,0.6,8.7
					c0.1,0.6,0.2,1.2,0.2,1.7C325.4,240.9,325.5,241.6,324.7,241.8z"/>
			</g>
			<g>
				<circle class="st6" cx="256" cy="256" r="251.4"/>
				<path class="st6" d="M323.8,150.2c0-7.7,0-15.3,0-23c0-22.7,0-45.3,0.1-68c0-0.6,0.1-1.2,0.1-2c4.5,1.7,8.8,3.4,13.1,5.1
					c27.8,10.8,55.6,21.7,83.4,32.4c1.9,0.8,2.4,1.7,2.4,3.6c-0.1,22,0,44,0,66c0,2.8,0,2.8-2.6,1.8c-27.6-10.7-55.1-21.4-82.7-32.2
					c-2.7-1.1-2.7-1-2.7,1.9c0,7,0.1,14,0.1,21c12.9,8,24,18.1,33.6,29.9c16.5,20.2,27,43.3,30.6,69.2c5.9,42.6-4.8,80.8-32.6,113.8
					c-19.4,23-43.8,38.6-73.1,45.7c-47.8,11.6-91.2,1.6-128.9-30.2c-24.9-21-40.7-47.9-46.8-79.9c-8.7-45.3,1.9-86.1,31.8-121.4
					c21-24.9,47.9-40.5,79.8-46.9c32.5-6.5,63.7-2.3,93.4,12.8C323.2,150,323.5,150.1,323.8,150.2z"/>
				<path class="st7" d="M335,156.9c-1.2,1.3-0.7,2.8-0.7,4.3c0,35.6,0,71.1,0,106.7c0,4.7,0,9.5-0.4,14.2
					c-1.8,20.7-9.7,38.4-25.6,52.2c-16.5,14.3-35.8,20.4-57.3,18.7c-17.9-1.4-33.6-8.7-46.3-21.4c-17.2-17.1-24.8-37.9-22.5-62.2
					c2.1-21.3,11.5-39.1,28.4-52c25.9-19.7,54-22,83.1-7.6c11.5,5.7,21,14.1,27.4,25.5c1,1.8,1.6,3.6,2.6,5.4c0.2,0.4,0.4,1,1,0.9
					c0.7-0.1,0.7-0.8,0.8-1.4c0.1-0.6,0-1.2-0.2-1.7c-0.6-2.9-0.6-5.8-0.6-8.7c0-25.2,0-50.5,0-75.7c0-1.4,0.5-2.9-0.8-4
					c0,0.7,0.1,1.3,0.1,2c0.2,29.7-0.5,59.4,0.6,89.1c-0.1-0.6-0.4-1.3-0.7-1.9c-2.6-6.6-6.7-12.3-11.8-17.1
					c-17.9-17-39.1-24.3-63.7-21.5c-16.8,1.9-31.3,8.9-43.4,20.6c-17.8,17.3-25.7,38.6-23.4,63.4c1.6,17.3,8.4,32.4,20.3,44.8
					c19,19.8,42.4,27.6,69.4,23.1c19-3.1,34.8-12.5,46.9-27.6c11.2-13.9,16.6-30.2,16.7-47.9c0.3-39.1,0.1-78.1,0.1-117.2
					C334.9,159,335,157.9,335,156.9z"/>
			</g>
		</g>
	</g>
</g>
<g id="Слой_2__x28_копия3_x29_" class="st0">
	<g class="st5">
		<g id="XMLID_2_">
			<g>
				<path d="M256,4.6c138.9,0,251.4,112.6,251.4,251.4S394.9,507.4,256,507.4S4.6,394.9,4.6,256S117.2,4.6,256,4.6z M422.9,98.3
					c0-1.9-0.5-2.9-2.4-3.6c-27.8-10.7-55.6-21.6-83.4-32.4c-4.3-1.7-8.6-3.3-13.1-5.1c0,0.9-0.1,1.4-0.1,2c0,22.7,0,45.3-0.1,68
					c0,7.7,0,15.3,0,23c-0.3-0.1-0.6-0.3-0.9-0.4c-29.7-15-60.9-19.3-93.4-12.8c-31.9,6.4-58.8,22-79.8,46.9
					c-29.9,35.3-40.4,76-31.8,121.4c6.1,32,21.9,58.9,46.8,79.9c37.7,31.8,81,41.7,128.9,30.2c29.3-7.1,53.7-22.7,73.1-45.7
					c27.7-33,38.5-71.1,32.6-113.8c-3.6-25.9-14.1-48.9-30.6-69.2c-9.6-11.8-20.7-21.9-33.6-29.9c0-7-0.1-14-0.1-21
					c0-2.9,0-2.9,2.7-1.9c27.6,10.7,55.1,21.4,82.7,32.2c2.6,1,2.6,1,2.6-1.8C422.9,142.3,422.9,120.3,422.9,98.3z"/>
			</g>
			<g>
				<circle class="st6" cx="256" cy="256" r="251.4"/>
				<path class="st7" d="M323.8,150.2c0-7.7,0-15.3,0-23c0-22.7,0-45.3,0.1-68c0-0.6,0.1-1.2,0.1-2c4.5,1.7,8.8,3.4,13.1,5.1
					c27.8,10.8,55.6,21.7,83.4,32.4c1.9,0.8,2.4,1.7,2.4,3.6c-0.1,22,0,44,0,66c0,2.8,0,2.8-2.6,1.8c-27.6-10.7-55.1-21.4-82.7-32.2
					c-2.7-1.1-2.7-1-2.7,1.9c0,7,0.1,14,0.1,21c12.9,8,24,18.1,33.6,29.9c16.5,20.2,27,43.3,30.6,69.2c5.9,42.6-4.8,80.8-32.6,113.8
					c-19.4,23-43.8,38.6-73.1,45.7c-47.8,11.6-91.2,1.6-128.9-30.2c-24.9-21-40.7-47.9-46.8-79.9c-8.7-45.3,1.9-86.1,31.8-121.4
					c21-24.9,47.9-40.5,79.8-46.9c32.5-6.5,63.7-2.3,93.4,12.8C323.2,150,323.5,150.1,323.8,150.2z"/>
				<path class="st7" d="M335,156.9c-1.2,1.3-0.7,2.8-0.7,4.3c0,35.6,0,71.1,0,106.7c0,4.7,0,9.5-0.4,14.2
					c-1.8,20.7-9.7,38.4-25.6,52.2c-16.5,14.3-35.8,20.4-57.3,18.7c-17.9-1.4-33.6-8.7-46.3-21.4c-17.2-17.1-24.8-37.9-22.5-62.2
					c2.1-21.3,11.5-39.1,28.4-52c25.9-19.7,54-22,83.1-7.6c11.5,5.7,21,14.1,27.4,25.5c1,1.8,1.6,3.6,2.6,5.4c0.2,0.4,0.4,1,1,0.9
					c0.7-0.1,0.7-0.8,0.8-1.4c0.1-0.6,0-1.2-0.2-1.7c-0.6-2.9-0.6-5.8-0.6-8.7c0-25.2,0-50.5,0-75.7c0-1.4,0.5-2.9-0.8-4
					c0,0.7,0.1,1.3,0.1,2c0.2,29.7-0.5,59.4,0.6,89.1c-0.1-0.6-0.4-1.3-0.7-1.9c-2.6-6.6-6.7-12.3-11.8-17.1
					c-17.9-17-39.1-24.3-63.7-21.5c-16.8,1.9-31.3,8.9-43.4,20.6c-17.8,17.3-25.7,38.6-23.4,63.4c1.6,17.3,8.4,32.4,20.3,44.8
					c19,19.8,42.4,27.6,69.4,23.1c19-3.1,34.8-12.5,46.9-27.6c11.2-13.9,16.6-30.2,16.7-47.9c0.3-39.1,0.1-78.1,0.1-117.2
					C334.9,159,335,157.9,335,156.9z"/>
			</g>
		</g>
	</g>
</g>
</svg>
