<svg id="Logo_white" data-name="Logo white" xmlns="http://www.w3.org/2000/svg" viewBox="0 0 696 393.5"><defs><style>.cls-1,.cls-2,.cls-3{fill:none;stroke:#fff;stroke-linecap:round;stroke-linejoin:round;}.cls-1{stroke-width:12px;}.cls-2{stroke-width:8px;}.cls-3{stroke-width:10px;}</style></defs><path class="cls-1" d="M620,171.54a219.75,219.75,0,0,1,60.42,76.85" transform="translate(-6.32 -4.09)"/><path class="cls-1" d="M432.11,280.51a107.28,107.28,0,0,1,1.62,32.17h0c-.18,1.91-.43,3.79-.72,5.66-4.34,28-19.6,51.49-40.33,63.84a67.75,67.75,0,0,1-8.63,4.36,63.86,63.86,0,0,1-19.8,4.83c-1.68.14-3.37.21-5.08.21a62.57,62.57,0,0,1-10.1-.81c-25.54-4.09-47-23.52-57.72-50.27a102.69,102.69,0,0,1-7-30.68,170.36,170.36,0,0,1,18.37-10.46,210.26,210.26,0,0,1,41.3-15q3.41-.87,6.88-1.63c1.11-.25,2.23-.49,3.35-.72a229,229,0,0,1,23.08-3.53q8-.81,15.76-1a189.14,189.14,0,0,1,23.81.83q2.26.23,4.5.51Q426.9,279.48,432.11,280.51Z" transform="translate(-6.32 -4.09)"/><path class="cls-1" d="M98.65,108.36a219.06,219.06,0,0,0,35.18,23.53" transform="translate(-6.32 -4.09)"/><path class="cls-1" d="M427.87,247c.21-1.68.38-3.34.51-5a101.89,101.89,0,0,0,.27-11.28v0a.09.09,0,0,0,0-.05q-.7-5.91-1.19-11.92v0q-.34-4.12-.57-8.3-.36-6.21-.46-12.53-.06-2.94-.06-5.91c0-10.09.46-20,1.34-29.76.29-3.11.61-6.19,1-9.26L430.27,130" transform="translate(-6.32 -4.09)"/><path class="cls-1" d="M412.27,133.54s-2.48,14.75-2.51,14.94c-1.38,10.24-2.28,20.74-2.67,31.44q-.22,6-.22,12,0,4.05.1,8.07.15,6.57.58,13h0q.75,11.85,2.34,23.29l3.72,11.09" transform="translate(-6.32 -4.09)"/><path class="cls-1" d="M299.16,247.36l3.72-11.09q1.58-11.43,2.34-23.29h0q.42-6.47.58-13,.1-4,.1-8.07,0-6.06-.22-12c-.39-10.7-1.29-21.2-2.67-31.44,0,0,0-.08,0-.2l-2.48-14.75" transform="translate(-6.32 -4.09)"/><path class="cls-1" d="M284.9,246.91c-.21-1.68-.38-3.34-.51-5a101.89,101.89,0,0,1-.27-11.28v0a.09.09,0,0,1,0-.05q.71-5.91,1.19-11.92v0q.35-4.12.57-8.3.36-6.21.46-12.53.06-2.94.06-5.91c0-10.09-.46-20-1.34-29.76-.29-3.11-.61-6.19-1-9.26l-1.59-22.9" transform="translate(-6.32 -4.09)"/><path class="cls-1" d="M349.58,355.35c-4.83-4-9.56-8.29-14.14-12.87s-8.61-9-12.49-13.68a188.69,188.69,0,0,1-20.22-29.43,210.26,210.26,0,0,1,41.3-15q-.78,7.53-1,15.31c-.16,6.23,0,12.37.36,18.38A187.9,187.9,0,0,0,349.58,355.35Z" transform="translate(-6.32 -4.09)"/><path class="cls-1" d="M416.91,278.28q-1.23,7-3,14A200.71,200.71,0,0,1,408,311.63a184.34,184.34,0,0,1-19.42,39.05A203.43,203.43,0,0,0,384,302q-1.35-6.27-3.07-12.28-1.65-5.78-3.62-11.3,8-.81,15.76-1A189.14,189.14,0,0,1,416.91,278.28Z" transform="translate(-6.32 -4.09)"/><path class="cls-1" d="M590.9,136.14a219.7,219.7,0,0,0,73.38-92.45q3.76-9,6.75-18.33,2.4-7.51,4.26-15.27a217.36,217.36,0,0,1,16,46.8,220,220,0,0,1,5,47q0,9.55-.81,18.91a218.5,218.5,0,0,1-48.64,119.72" transform="translate(-6.32 -4.09)"/><path class="cls-1" d="M668.57,199.71" transform="translate(-6.32 -4.09)"/><path class="cls-2" d="M637.79,163.13a87.39,87.39,0,0,1,22.44,22" transform="translate(-6.32 -4.09)"/><path class="cls-2" d="M620,138.72c17.09-11.59,34.68-31.62,44.68-50.56q2.41-4.57,4.46-9.4,1.65-3.89,3-7.92a123,123,0,0,1,5,25.9,126.74,126.74,0,0,1-.38,25.35c-.38,3.4-.61,6.92-1,10.25-2.47,19.1-7.26,37-15.6,52.77" transform="translate(-6.32 -4.09)"/><path class="cls-1" d="M70.91,163.13A219.71,219.71,0,0,0,60.57,257a1.94,1.94,0,0,0,0,.24h0c0,.13,0,.26,0,.39a.68.68,0,0,0,0,.14c0,.14,0,.29.05.43a.09.09,0,0,0,0,0s0,.05,0,.08h0c.39,3.57.86,7.12,1.44,10.64A218,218,0,0,1,14.09,157.79a221.14,221.14,0,0,1-.44-52.14A217.23,217.23,0,0,1,26.34,52.56a0,0,0,0,0,0,0A215.46,215.46,0,0,1,37.3,28.17c.61,1.35,1.22,2.68,1.86,4q4,8.57,8.76,16.69a220.29,220.29,0,0,0,50.73,59.49" transform="translate(-6.32 -4.09)"/><path class="cls-2" d="M49.94,163.13c-3.25,9.56-5.88,22.85-7.73,33" transform="translate(-6.32 -4.09)"/><path class="cls-2" d="M83.27,122.16a139.88,139.88,0,0,0,23.13,14.08" transform="translate(-6.32 -4.09)"/><path class="cls-2" d="M42.21,196.09a267.71,267.71,0,0,1-10-40.18c-.62-3-1.36-8.13-1.91-12.17A92.7,92.7,0,0,1,29.4,131c0-3,.06-6.46.22-8.8.78-11.86,2.32-22.75,5.91-33.67h0a136.61,136.61,0,0,1,6.33-15.87c.42.84.85,1.67,1.3,2.51,1.86,3.57,3.89,7,6,10.42a140.77,140.77,0,0,0,34.05,36.62" transform="translate(-6.32 -4.09)"/><path class="cls-1" d="M45.84,199.71" transform="translate(-6.32 -4.09)"/><path class="cls-1" d="M593.31,268.37a76.78,76.78,0,0,1-35.45,26.37A75.79,75.79,0,0,1,537.52,299h-.07q-3.66.14-7.4.18h0a76.31,76.31,0,0,1-74.33-76.28c0-.43,0-.86,0-1.29,19.51-5.76,44.07-9.2,70.77-9.2,24,0,46.21,2.77,64.63,7.5,1.84.48,3.63,1,5.39,1.48,4.16,1.2,8.09,2.52,11.76,3.92" transform="translate(-6.32 -4.09)"/><path class="cls-1" d="M606.71,207.33q-.53-2.54-1.21-5a76.34,76.34,0,0,0-84.24-54.94h0a76.31,76.31,0,0,0-65.53,74.26c19.51-5.76,44.07-9.2,70.77-9.2,24,0,46.21,2.77,64.63,7.5,1.84.48,3.63,1,5.39,1.48,4.16,1.2,8.09,2.52,11.76,3.92,0-.8,0-1.6,0-2.41A76.37,76.37,0,0,0,606.71,207.33Zm-151,14.31c19.51-5.76,44.07-9.2,70.77-9.2" transform="translate(-6.32 -4.09)"/><path class="cls-3" d="M528.57,196.51a15.09,15.09,0,1,1,15.09-15.09A15.1,15.1,0,0,1,528.57,196.51Z" transform="translate(-6.32 -4.09)"/><path class="cls-1" d="M242.29,268.37A76,76,0,0,1,186.51,299h-.07q-3.66.14-7.4.18h0a76.31,76.31,0,0,1-74.33-76.28c0-.43,0-.86,0-1.29,19.51-5.76,44.07-9.2,70.77-9.2,24,0,46.21,2.77,64.63,7.5,1.84.48,3.63,1,5.39,1.48,4.16,1.2,8.09,2.52,11.76,3.92" transform="translate(-6.32 -4.09)"/><path class="cls-1" d="M255.7,207.33q-.52-2.54-1.21-5a76.34,76.34,0,0,0-84.24-54.94h0a76.31,76.31,0,0,0-65.53,74.26c19.51-5.76,44.07-9.2,70.77-9.2,24,0,46.21,2.77,64.63,7.5,1.84.48,3.63,1,5.39,1.48,4.16,1.2,8.09,2.52,11.76,3.92,0-.8,0-1.6,0-2.41A76.37,76.37,0,0,0,255.7,207.33Z" transform="translate(-6.32 -4.09)"/><path class="cls-3" d="M179.09,196.43A15.09,15.09,0,1,1,192.57,183,15.09,15.09,0,0,1,179.09,196.43Z" transform="translate(-6.32 -4.09)"/></svg>