<?xml version="1.0" encoding="utf-8"?>
<!-- Generator: Adobe Illustrator 26.0.1, SVG Export Plug-In . SVG Version: 6.00 Build 0)  -->
<svg version="1.1" id="Слой_1" xmlns="http://www.w3.org/2000/svg" xmlns:xlink="http://www.w3.org/1999/xlink" x="0px" y="0px"
	 viewBox="0 0 259.7 84.6" style="enable-background:new 0 0 259.7 84.6;" xml:space="preserve">
<style type="text/css">
	.st0{display:none;}
	.st1{display:inline;}
	.st2{fill:#F5F5F5;stroke:#F5F5F5;stroke-width:3;stroke-linecap:round;stroke-linejoin:round;stroke-miterlimit:10;}
</style>
<g id="Capa_1" class="st0">
	<g class="st1">
		<path d="M271.5-7.1l-14.3-14.3c-1.9-1.9-4.1-2.9-6.6-2.9s-4.7,1-6.6,2.9L131.9,90.8L19.7-21.4c-1.9-1.9-4.1-2.9-6.6-2.9
			s-4.7,1-6.6,2.9L-7.7-7.1c-1.9,1.9-2.9,4.1-2.9,6.6s1,4.7,2.9,6.6l133,133c1.9,1.9,4.1,2.9,6.6,2.9s4.7-1,6.6-2.9l133.1-133
			c1.9-1.9,2.8-4.1,2.8-6.6C274.4-3,273.4-5.2,271.5-7.1z"/>
	</g>
</g>
<g id="Слой_2_00000060724482596462665180000014950352845622503347_">
	<path class="st2" d="M257.3,6.1c0,1-0.5,2-1.5,2.5L131.6,80.5c-0.5,0.3-1,0.4-1.5,0.4s-1-0.1-1.5-0.4L4.2,8.7
		C3.3,8.1,2.7,7.2,2.7,6.2c0-0.5,0.1-1,0.4-1.5c0.8-1.4,2.6-1.9,4-1.1l122.9,71l123-71c1.4-0.8,3.2-0.3,4,1.1
		C257.2,5.2,257.3,5.7,257.3,6.1z"/>
</g>
</svg>
