<?xml version="1.0" encoding="utf-8"?>
<!-- Generator: Adobe Illustrator 26.0.1, SVG Export Plug-In . SVG Version: 6.00 Build 0)  -->
<svg version="1.1" id="Слой_1" xmlns="http://www.w3.org/2000/svg" xmlns:xlink="http://www.w3.org/1999/xlink" x="0px" y="0px"
	 viewBox="0 0 257.6 122.8" style="enable-background:new 0 0 257.6 122.8;" xml:space="preserve">
<style type="text/css">
	.st0{fill:#F5F5F5;stroke:#F5F5F5;stroke-width:3;stroke-linecap:round;stroke-linejoin:round;}
</style>
<g id="Слой_2_00000048492862176572096350000012330247893887996563_">
	<path class="st0" d="M256.1,4.4c0,1.1-0.6,2-1.5,2.5L130.4,78.8c-0.9,0.5-2.1,0.5-3,0L3,7C2.1,6.5,1.5,5.5,1.5,4.5
		c0-0.5,0.1-1,0.4-1.5c0.8-1.4,2.6-1.9,4-1.1l122.9,71l123-71c1.4-0.8,3.2-0.3,4,1.1C256,3.4,256.1,3.9,256.1,4.4z"/>
</g>
<g id="Слой_2-2">
	<path class="st0" d="M249.2,48.1c0,1-0.5,1.9-1.4,2.4l-117.5,68c-0.9,0.5-2,0.5-2.8,0L9.8,50.6c-0.8-0.5-1.4-1.4-1.4-2.3
		c0-0.5,0.1-1,0.4-1.4c0.8-1.3,2.5-1.8,3.8-1l116.2,67.1l116.3-67.2c1.3-0.8,3-0.3,3.8,1C249.1,47.2,249.2,47.7,249.2,48.1z"/>
</g>
</svg>
