<?xml version="1.0" encoding="utf-8"?>
<!-- Generator: Adobe Illustrator 26.0.1, SVG Export Plug-In . SVG Version: 6.00 Build 0)  -->
<svg version="1.1" id="Луна" xmlns="http://www.w3.org/2000/svg" xmlns:xlink="http://www.w3.org/1999/xlink" x="0px" y="0px"
	 viewBox="0 0 320.4 320.4" style="enable-background:new 0 0 320.4 320.4;" xml:space="preserve">
<style type="text/css">
	.st0{fill:#CCCC00;stroke:#282828;stroke-miterlimit:10;}
	.st1{fill:none;stroke:#282828;stroke-width:10;stroke-linecap:round;stroke-linejoin:round;}
	.st2{fill:none;stroke:#282828;stroke-width:7;stroke-linecap:round;stroke-linejoin:round;}
</style>
<g id="XMLID_00000097499743894636345640000009753056828805736870_">
	<g>
		<path class="st0" d="M294.3,194c9.2-9.1,16.8-19.7,22.7-31.5c-1.3,86.5-72.5,155.7-159,154.4c-86.5-1.3-155.7-72.5-154.4-159
			C4.8,73.1,73.2,4.7,157.9,3.5c-13.7,6.8-25.6,15.9-35.2,26.6c0,0.1-0.1,0.1-0.1,0.1c-42,45.4-42.2,116.1,0.8,161.8
			c44.9,47.7,120.1,49.9,167.8,5C292.2,196,293.3,195,294.3,194z"/>
		<polygon class="st0" points="271.4,79.5 287.3,81.8 275.8,93 278.5,108.8 264.3,101.3 250.1,108.8 252.8,93 241.3,81.8 
			257.2,79.5 264.3,65.1 		"/>
		<polygon class="st0" points="232.4,154.4 219.4,167 222.4,184.9 206.4,176.5 190.3,184.9 193.4,167 180.4,154.4 198.3,151.7 
			206.4,135.5 214.4,151.7 		"/>
		<polygon class="st0" points="193.7,50.7 183.2,60.9 185.7,75.3 172.7,68.5 159.7,75.3 162.2,60.9 151.7,50.7 166.2,48.5 
			172.7,35.4 179.2,48.5 		"/>
	</g>
	<g>
		<path class="st1" d="M122.6,30.2C90.8,65.3,82,117.5,104.2,162.5c29.1,58.7,100.3,82.8,159,53.7c11.6-5.7,22-13.2,31-22.2
			c9.2-9.1,16.8-19.7,22.7-31.5c-1.3,86.5-72.5,155.7-159,154.4c-86.5-1.3-155.7-72.5-154.4-159C4.8,73.1,73.2,4.7,157.9,3.5
			c-13.7,6.8-25.6,15.9-35.2,26.6"/>
		<path class="st2" d="M67.9,55.4c7.3-6.4,15.2-12.1,23.7-16.9"/>
		<path class="st2" d="M20.5,160.2c0-33.7,12.1-66.2,34.2-91.6"/>
		<path class="st1" d="M128.5,24.2c-2,1.9-4,3.9-5.8,5.9c0,0.1-0.1,0.1-0.1,0.1c-42,45.4-42.2,116.1,0.8,161.8
			c44.9,47.7,120.1,49.9,167.8,5c1-1,2.1-2,3.1-3c0.7-0.7,1.3-1.3,1.9-2"/>
		<polygon class="st2" points="172.7,35.4 179.2,48.5 193.7,50.7 183.2,60.9 185.7,75.3 172.7,68.5 159.7,75.3 162.2,60.9 
			151.7,50.7 166.2,48.5 		"/>
		<polygon class="st2" points="206.4,135.5 214.4,151.7 232.4,154.4 219.4,167 222.4,184.9 206.4,176.5 190.3,184.9 193.4,167 
			180.4,154.4 198.3,151.7 		"/>
		<polygon class="st2" points="264.3,65.1 271.4,79.5 287.3,81.8 275.8,93 278.5,108.8 264.3,101.3 250.1,108.8 252.8,93 
			241.3,81.8 257.2,79.5 		"/>
	</g>
</g>
</svg>
